<?xml version="1.0" encoding="utf-8"?>
<!-- Generator: Adobe Illustrator 23.0.3, SVG Export Plug-In . SVG Version: 6.00 Build 0)  -->
<svg version="1.1" xmlns="http://www.w3.org/2000/svg" xmlns:xlink="http://www.w3.org/1999/xlink" x="0px" y="0px"
	 viewBox="0 0 1000 1000" style="enable-background:new 0 0 1000 1000;" xml:space="preserve">
<style type="text/css">
	.st0{fill:#010101;}
	.st1{fill:#79479F;}
</style>
<g id="Layer_1">
	<path class="st0" d="M545.3,46.1C652,55.9,744.5,97.7,821.7,171.8c73.1,70.2,119,155.7,133.9,255.9
		c22.2,148.8-19,278.9-121.8,389.1c-9.1,9.7-18.9,18.7-28.9,27.5c-1.5,1.3-2.6,3.7-5.8,2.9c10.9-15.3,19.4-31.7,23.6-49.8
		c14.9-65.2-0.6-121.7-49-168.5c-30.9-29.9-67.6-51.1-105.6-70.5c-26.2-13.3-52.8-25.8-77.5-41.9c-12.6-8.2-24.4-17.5-35.2-28
		c-35-34.3-37.2-98.6,13.5-131.9c28.2-18.6,59.7-25.9,92.9-26.6c29.2-0.6,57.5,3.4,83.4,17.8c30.4,16.9,50.3,41.8,56,76.9
		c0.6,3.9,0.7,7.9,1.3,13.7c4-6.2,4.2-11.4,4.2-16.4c0.1-32.5,0.7-65,3.2-97.4c0.3-4.6-0.7-7.3-5.7-8.3
		c-70.7-14-141.6-20.3-212.8-4.1c-31.7,7.2-61.1,20-87.5,39.5c-76.7,56.7-68.7,146.1-31.5,199.3c21.2,30.3,50,52,80.8,71.4
		c19.9,12.6,40.8,23.4,61.6,34.4c3.6,1.9,4.9,3.8,4,8c-8.8,40.7-28.6,55.5-62.4,59.4c-46.5,5.3-93.2,4.7-139.6-2.4
		c-28.7-4.3-37.9-15.6-41.6-46.5c-3.1-25.8-3.1-51.8-3.2-77.7c-0.2-91.2-0.4-182.4,0-273.6c0.2-53.9-0.4-107.8,1.6-161.6
		c0.3-7.4,1-14.8,3.1-22c2.9-10.1,9.5-16.5,19.5-19.2c12.7-3.4,25.8-4.1,38.9-4.4c3.5-0.1,7-0.3,10.4-0.9c3.6-0.7,6.8-2.3,6.7-6.7
		c0-4.6-3.7-5.7-7.2-6.1c-5-0.6-10-0.8-15-0.8c-47.1,0.2-94.2,2.3-141.3,1.5c-1.5,0-2.9-0.1-4.5-0.2c0.4-2.6,2.5-2.7,3.8-3.4
		c58.4-32,120.9-49.9,187.3-54.7c1.9-0.1,23.6-0.3,28.4-0.5C509.8,44.7,539.6,45.6,545.3,46.1z"/>
	<path class="st1" d="M259.6,422.8c0,78.5,0.2,157-0.2,235.6c-0.1,21.5-0.6,43.2-4.7,64.5c-1.6,8.4-4,16.6-10.7,22.6
		c-7.2,6.4-16.3,6.8-25.2,7.7c-5.6,0.6-11.4,0.1-17,0.6c-5.2,0.5-11.6,0.1-12.5,7.6c-0.5,4.5,4.2,7.5,12.5,7.6
		c12.2,0.1,24.4,0,36.6-0.5c45.5-1.8,91.1-2.2,136.7-1.1c66.7,1.5,133.4,4.1,200.2,3.3c9.2-0.1,18.3-0.2,27.4-1.3
		c11.5-1.3,18.1-7.5,21.1-18.3c4.6-16.6,7-33.7,9.1-50.8c1.1-9.1,1.9-18.2,2.8-27.3c0.2-2.4,0.2-4.8,3.6-2.9
		c33.1,18.1,64.8,37.9,86.2,70.4c10.7,16.3,15.4,34.5,16.2,53.8c1.3,31.2-0.8,61.8-15.8,90.3c-7.7,14.6-17.4,25.1-33.2,31.8
		c-50.9,21.6-103.3,35.7-158.6,38.6C401.5,962,286.3,920,190.2,828.6C118,760,73.1,675.6,57.1,577
		c-21.9-135.2,10.3-256.9,95.5-364.2c25.1-31.6,54.6-58.7,87.2-82.5c4.3-3.2,6.8-2.2,9.9,1c6.4,6.7,8.5,15.1,9.1,23.9
		c1.7,26.1,1,52.3,1.1,78.5c0.2,63,0.1,126.1,0.1,189.1C259.8,422.8,259.7,422.8,259.6,422.8z"/>
</g>
<g id="Layer_2">
</g>
</svg>
