<?xml version="1.0" encoding="UTF-8" standalone="no"?> <svg id="Layer_1" data-name="Layer 1" xmlns="http://www.w3.org/2000/svg" viewBox="0 0 128 128"><defs><style>.cls-1{fill:#2e79bd;}.cls-2{fill:#2d3e50;}</style></defs><title>n</title><path class="cls-1" d="M52.97622,25.36143H44.96753A4.96662,4.96662,0,0,0,40.69709,16.394l-7.08073,3.24571L26.5356,16.394a4.96745,4.96745,0,0,0-4.27482,8.96748H14.25647a6.286,6.286,0,0,0-6.27592,6.28032v5.72614H10.439V65.76562H56.79366V37.36789h2.45848V31.64175A6.286,6.286,0,0,0,52.97622,25.36143Zm-18.04487-3.426,6.86083-3.149a2.34581,2.34581,0,0,1,3.32487,2.133,2.349,2.349,0,0,1-2.34413,2.3441H34.93135Zm-12.8157-1.01593a2.3,2.3,0,0,1,1.07751-1.97469,2.32545,2.32545,0,0,1,1.26222-.37825,2.35719,2.35719,0,0,1,.98074.2199l6.86523,3.149v1.32817H24.45977A2.349,2.349,0,0,1,22.11565,20.91948ZM52.24177,61.21372H14.99092V37.36789H52.24177Z"/><path class="cls-2" d="M119.98483,63.1158H106.96235l-1.36359-3.11306-9.7355-22.25033A2.22236,2.22236,0,0,0,93.827,36.41749H64.76392V72.017H2.46877V92.04069a2.22265,2.22265,0,0,0,2.224,2.224h9.0576a15.57445,15.57445,0,1,0,30.8308,0H83.41623a15.57444,15.57444,0,1,0,30.8308,0h9.0576a2.22661,2.22661,0,0,0,2.22661-2.22661V68.66218A5.54639,5.54639,0,0,0,119.98483,63.1158ZM29.1669,106.22837A9.73672,9.73672,0,0,1,19.92723,93.412c.02511-.05479.04795-.10956.06848-.16663a9.791,9.791,0,0,1,5.04211-5.57166c.13466-.06391.26933-.12327.40629-.18032.10729-.04338.21456-.08673.32412-.12783.18261-.06848.36978-.13237.55694-.18943.11868-.03654.23967-.07077.36063-.10272.105-.02739.21-.05477.31728-.07761.21227-.05021.42912-.0913.646-.12554q.37319-.0582.75323-.089c.08674-.00684.17576-.01141.26477-.016h.00913c.0525-.00455.10727-.00684.16206-.00684q.16435-.00685.32868-.00684t.32869.00684c.05477,0,.10956.00229.16206.00684h.00912c.089.00457.178.00913.26478.016q.38.03084.75323.089c.21685.03425.43369.07533.646.12554.10727.02284.21227.05022.31727.07761.105.02968.21.05936.31271.089.15522.04793.31042.09815.46563.15293.15293.05477.30586.11413.45423.17576.07761.03194.1552.06618.23281.10043.04338.01825.08445.0388.12783.05934.13009.05934.2602.12327.388.18945q.12668.065.25336.137c.11186.06163.2237.12554.33324.19172.13011.08218.26022.16435.388.25108a9.77237,9.77237,0,0,1,3.732,4.82527,1.63722,1.63722,0,0,0,.073.17347,9.74269,9.74269,0,0,1-9.242,12.80954ZM73.68073,58.66782V40.86808H92.36955l7.78787,17.79974Zm25.152,47.56055A9.73672,9.73672,0,0,1,89.5931,93.412c.0251-.05479.04792-.10956.06848-.16663a9.79092,9.79092,0,0,1,5.04209-5.57166c.13468-.06391.26933-.12327.4063-.18032.10727-.04338.21456-.08673.32411-.12783.18261-.06848.36976-.13237.55694-.18943.1187-.03654.23967-.07077.36065-.10272.105-.02739.21-.05477.31728-.07761.21227-.05021.42911-.0913.64594-.12554q.37319-.0582.75325-.089c.08671-.00684.17575-.01141.26477-.016H98.342c.05251-.00455.10729-.00684.16206-.00684q.16435-.00685.32869-.00684t.32868.00684c.05479,0,.10956.00229.16206.00684h.00913c.089.00457.178.00913.26477.016q.38006.03084.75325.089c.21682.03425.43367.07533.64594.12554.10729.02284.21227.05022.31728.07761.105.02968.21.05936.3127.089.1552.04793.31042.09815.46563.15293.15294.05477.30587.11413.45423.17576.07761.03194.15522.06618.23281.10043.04336.01825.08445.0388.12782.05934.13011.05934.26022.12327.388.18945q.12668.065.25336.137c.11186.06163.2237.12554.33326.19172.13011.08218.26022.16435.388.25108a9.77222,9.77222,0,0,1,3.73192,4.82527,1.64726,1.64726,0,0,0,.073.17347,9.74265,9.74265,0,0,1-9.24194,12.80954Z"/></svg>